# xmcd
#
# Track frame offsets: 
#        150
#        10247
#        24521
#        37057
#        49715
#        65080
#        76516
#        91285
#        98689
#        114632
#        124923
#        136672
#        147471
#        161822
#        174340
#        186130
#        198456
#        208798
#        220447
#        233529
#        245291
#        256794
#        272151
#        284426
#        295951
#        308490
#        320343
#
# Disc length: 4434 seconds
#
# Revision: 0
# Processed by: cddbd v1.5.2PL0 Copyright (c) Steve Scherf et al.
# Submitted via: ExactAudioCopy v0.95b3
#
DISCID=8411501b
DTITLE=Jan and Dean  - Carnival Of Sound (1968 - unreleased)  WAV
DYEAR=1900
DGENRE=
TTITLE0=Fan Tan
TTITLE1=Carnival Of Sound
TTITLE2=Hawaii
TTITLE3=Laurel and Hardy
TTITLE4=I Know My Mind
TTITLE5=Blowing My Mind
TTITLE6=In The Still Of The Night
TTITLE7=Stay
TTITLE8=Louisiana Man
TTITLE9=Mulholland
TTITLE10=Only A Boy [WB 45]
TTITLE11=Love And Hate [WB 45]
TTITLE12=I Know My Mind [WB 45]
TTITLE13=Laurel and Hardy [WB 45]
TTITLE14=Blowing My Mind [WB 45]
TTITLE15=Hawaii [J&D 45]
TTITLE16=Fan Tan [J&D 45]
TTITLE17=Love And Hate [J&D 45]
TTITLE18=Carnival Of Sound [alternate vocal]
TTITLE19=Blowing My Mind [alternate #1]
TTITLE20=Blowing My Mind [alternate #2]
TTITLE21=Mulholland [rough vocal]
TTITLE22=Laurel and Hardy [alternate vocal]
TTITLE23=Laurel and Hardy [Davy Jones vocal]
TTITLE24=Hawaii [instrumental]
TTITLE25=Louisiana Man [instrumental]
TTITLE26=Love And Hate [instrumental]
EXTD=
EXTT0=
EXTT1=
EXTT2=
EXTT3=
EXTT4=
EXTT5=
EXTT6=
EXTT7=
EXTT8=
EXTT9=
EXTT10=
EXTT11=
EXTT12=
EXTT13=
EXTT14=
EXTT15=
EXTT16=
EXTT17=
EXTT18=
EXTT19=
EXTT20=
EXTT21=
EXTT22=
EXTT23=
EXTT24=
EXTT25=
EXTT26=
PLAYORDER=
